<svg width="20" height="22" viewBox="0 0 20 22" fill="none" xmlns="http://www.w3.org/2000/svg">
<path fill-rule="evenodd" clip-rule="evenodd" d="M10 8.5C11.3809 8.5 12.5 9.61912 12.5 11C12.5 12.3809 11.3809 13.5 10 13.5C8.61912 13.5 7.5 12.3809 7.5 11C7.5 9.61912 8.61912 8.5 10 8.5Z" stroke="#130F26" stroke-width="1.5" stroke-linecap="round" stroke-linejoin="round"/>
<path fill-rule="evenodd" clip-rule="evenodd" d="M18.168 6.25025V6.25025C17.4845 5.05799 15.9712 4.65004 14.7885 5.33852C13.7598 5.93613 12.4741 5.18838 12.4741 3.99218C12.4741 2.61619 11.3659 1.5 9.99976 1.5V1.5C8.63365 1.5 7.52546 2.61619 7.52546 3.99218C7.52546 5.18838 6.23977 5.93613 5.21199 5.33852C4.02829 4.65004 2.51507 5.05799 1.83153 6.25025C1.14896 7.4425 1.55399 8.96665 2.73769 9.65415C3.76546 10.2527 3.76546 11.7473 2.73769 12.3459C1.55399 13.0343 1.14896 14.5585 1.83153 15.7498C2.51507 16.942 4.02829 17.35 5.21101 16.6625H5.21199C6.23977 16.0639 7.52546 16.8116 7.52546 18.0078V18.0078C7.52546 19.3838 8.63365 20.5 9.99976 20.5V20.5C11.3659 20.5 12.4741 19.3838 12.4741 18.0078V18.0078C12.4741 16.8116 13.7598 16.0639 14.7885 16.6625C15.9712 17.35 17.4845 16.942 18.168 15.7498C18.8515 14.5585 18.4455 13.0343 17.2628 12.3459H17.2618C16.2341 11.7473 16.2341 10.2527 17.2628 9.65415C18.4455 8.96665 18.8515 7.4425 18.168 6.25025Z" stroke="#130F26" stroke-width="1.5" stroke-linecap="round" stroke-linejoin="round"/>
</svg>
