<svg width="1319" height="627" viewBox="0 0 1319 627" fill="none" xmlns="http://www.w3.org/2000/svg">
<path d="M798.617 292.365C395.047 296.51 103.874 511.443 4.10891 622.862C1.37296 625.917 0 629.775 0 633.876V743C0 752.389 7.61116 760 17 760H1382C1391.39 760 1399 752.389 1399 743V112.497C1399 92.9981 1354.39 81.1133 1341.54 95.7823C1260.86 187.909 1094.47 289.327 798.617 292.365Z" fill="#FFF5E2"/>
<path d="M1127.62 437.365C724.047 441.51 432.874 656.443 333.109 767.862C330.373 770.917 329 774.775 329 778.876V888C329 897.389 336.611 905 346 905H1711C1720.39 905 1728 897.389 1728 888V257.497C1728 237.998 1683.39 226.113 1670.54 240.782C1589.86 332.909 1423.47 434.327 1127.62 437.365Z" fill="#FFFBF3"/>
</svg>
