<svg width="58" height="58" viewBox="0 0 58 58" fill="none" xmlns="http://www.w3.org/2000/svg">
<rect width="58" height="58" rx="29" fill="#FA5151"/>
<path fill-rule="evenodd" clip-rule="evenodd" d="M27.5917 29.0002C27.5917 30.0989 26.7012 30.9894 25.6025 30.9894C24.5037 30.9894 23.6133 30.0989 23.6133 29.0002C23.6133 27.9014 24.5037 27.011 25.6025 27.011H25.6057C26.7034 27.0121 27.5917 27.9025 27.5917 29.0002Z" stroke="white" stroke-width="1.5" stroke-linecap="round" stroke-linejoin="round"/>
<path d="M27.595 29.0002H34.381V30.9894" stroke="white" stroke-width="1.5" stroke-linecap="round" stroke-linejoin="round"/>
<path d="M31.3437 30.9894V29.0002" stroke="white" stroke-width="1.5" stroke-linecap="round" stroke-linejoin="round"/>
<path fill-rule="evenodd" clip-rule="evenodd" d="M19.0647 29.0001C19.0647 21.5493 21.549 19.0649 28.9999 19.0649C36.4507 19.0649 38.9351 21.5493 38.9351 29.0001C38.9351 36.451 36.4507 38.9353 28.9999 38.9353C21.549 38.9353 19.0647 36.451 19.0647 29.0001Z" stroke="white" stroke-width="1.5" stroke-linecap="round" stroke-linejoin="round"/>
</svg>
