<svg width="93" height="92" viewBox="0 0 93 92" fill="none" xmlns="http://www.w3.org/2000/svg">
<path d="M62.2029 77.1465L68.9477 85.7488C76.6686 81.4575 83.0166 75.0009 87.1702 67.1984L79.7741 53.2127L90.3796 59.5716C91.7598 55.2088 92.5151 50.5663 92.5151 45.7483C92.5151 43.7652 92.3718 41.8146 92.1307 39.8965L77.6127 27.9457L89.4748 29.3437C87.3393 23.791 84.149 18.7649 80.1517 14.493L66.5514 11.4761L74.7287 9.56448C66.9813 3.57612 57.2676 0 46.7143 0C36.1609 0 26.4474 3.57612 18.7 9.56448L26.8771 11.4761L13.2769 14.493C9.27943 18.7584 6.08935 23.791 3.95394 29.3437L15.8159 27.9457L1.29769 39.8965C1.05029 41.8146 0.913574 43.7652 0.913574 45.7483C0.913574 50.5663 1.66227 55.2088 3.04899 59.5716L13.6544 53.2127L6.25862 67.1984C10.4123 75.0009 16.7599 81.4575 24.4813 85.7488L31.226 77.1465V88.8115C36.0633 90.5475 41.2847 91.5033 46.7209 91.5033C52.157 91.5033 57.3783 90.5536 62.2158 88.8115V77.1465H62.2029Z" fill="#FFC248"/>
<path d="M79.7809 53.2193L83.1989 55.2675L77.6128 50.6705L89.475 52.0685C87.3395 46.5157 84.1491 41.4897 80.1518 37.2178L66.5515 34.2009L74.7288 32.2893C66.9815 26.3009 57.2678 22.7248 46.7145 22.7248C36.1611 22.7248 26.4476 26.3009 18.7002 32.2893L26.8773 34.2009L13.277 37.2178C9.27962 41.4832 6.08952 46.5157 3.9541 52.0685L15.8161 50.6705L10.2301 55.2675L13.6481 53.2193L6.25228 67.2053C8.04267 70.5604 10.2367 73.6681 12.7692 76.4642L13.6416 75.9372L13.1468 76.8739C16.4216 80.3913 20.2366 83.4018 24.4749 85.7557L31.2197 77.1534V88.8179C36.0569 90.5538 41.2783 91.5096 46.7145 91.5096C52.1507 91.5096 57.3723 90.5605 62.2092 88.8179V77.1534L68.954 85.7557C73.1924 83.4018 77.0076 80.3913 80.2822 76.8739L79.7877 75.9372L80.6599 76.4642C83.1921 73.6681 85.3928 70.5666 87.1765 67.2053L79.7809 53.2193Z" fill="#E99E09"/>
<path d="M57.3068 67.4848C56.1999 68.6875 54.8783 70.1311 53.5501 71.5746C49.9108 75.5342 43.6608 75.5342 40.028 71.5746L36.1153 67.3158C34.6569 65.7292 35.1387 63.1676 37.0918 62.2702C41.0111 60.4624 47.834 58.7203 56.2259 62.3937C58.2374 63.2715 58.791 65.8656 57.3068 67.4848Z" fill="#FFC248"/>
<path d="M71.5648 40.9822L66.9291 32.5296C66.7993 32.289 66.8055 31.9899 66.9488 31.7558L70.0998 26.6517C70.4707 26.047 69.8913 25.2993 69.2467 25.5529L64.3969 27.51C63.804 27.7506 63.2313 27.1134 63.4915 26.5087L65.1522 22.679C65.4124 22.0678 64.833 21.4371 64.2407 21.6842L57.3329 24.5646C56.773 24.7987 56.2131 24.246 56.3954 23.6478L57.6779 19.415C57.8864 18.7323 57.1373 18.1666 56.5842 18.5892L47.1246 25.7349C46.8772 25.9235 46.5386 25.9235 46.2913 25.7349L36.8316 18.5892C36.2783 18.1731 35.5295 18.7323 35.7379 19.415L37.0204 23.6478C37.2027 24.246 36.6363 24.7921 36.0829 24.5646L29.1754 21.6842C28.5829 21.4371 28.0035 22.0743 28.2639 22.679L29.9241 26.5087C30.1845 27.1134 29.6116 27.7506 29.0191 27.51L24.1689 25.5529C23.5243 25.2928 22.9449 26.047 23.316 26.6517L26.4671 31.7558C26.6103 31.9899 26.6168 32.289 26.4866 32.5296L21.8447 40.9822C21.6624 41.3203 21.7535 41.7429 22.0595 41.964L33.1077 49.8965C33.3616 50.0786 33.4787 50.4166 33.3876 50.7288L29.4033 63.0759C29.3251 63.3363 29.3967 63.6226 29.592 63.8173L30.9332 64.9421C34.5725 67.9981 39.8134 68.2192 43.7001 65.482C45.3798 64.2983 46.7144 63.3425 46.7144 63.3425C46.7144 63.3425 48.049 64.2983 49.7287 65.482C53.609 68.2125 58.8564 67.9919 62.489 64.9421L63.8304 63.8173C64.0192 63.6226 64.0906 63.3363 64.0192 63.0759L60.0349 50.7288C59.9438 50.4166 60.0545 50.0851 60.3147 49.8965L71.3631 41.964C71.6559 41.7429 71.7469 41.3138 71.5648 40.9822Z" fill="white"/>
<path d="M51.9682 57.0687C53.2117 56.8869 53.6674 55.3391 52.7169 54.5133C51.1545 53.1479 48.5242 52.0751 44.7157 52.8033C42.8927 53.1544 41.5776 53.9867 40.6661 54.8189C39.7417 55.6707 40.2365 57.2051 41.4865 57.355L44.2013 57.6799C44.7417 57.745 45.2039 58.1025 45.3992 58.6099L45.9657 60.0793C46.2717 60.879 47.4044 60.8661 47.6974 60.0664L48.3094 58.3888C48.4917 57.8814 48.9409 57.5172 49.4747 57.4391L51.9682 57.0687Z" fill="#171314"/>
<path d="M42.1441 46.6978L40.2626 41.9968C39.872 41.028 38.9995 40.3323 37.9644 40.1697L30.0868 38.9213C29.3836 38.8108 29.0647 39.7666 29.6896 40.0982L32.5673 41.6392C32.5673 41.6392 33.4592 46.9058 39.0972 45.1243L41.0829 47.348C41.5581 47.8812 42.411 47.3545 42.1441 46.6978Z" fill="#171314"/>
<path d="M51.2653 46.6978L53.1468 41.9968C53.5374 41.028 54.4098 40.3323 55.445 40.1697L63.3225 38.9213C64.0255 38.8108 64.3447 39.7666 63.7198 40.0982L60.8419 41.6392C60.8419 41.6392 59.9501 46.9058 54.3122 45.1243L52.3265 47.348C51.8512 47.8812 51.0048 47.3545 51.2653 46.6978Z" fill="#171314"/>
</svg>
