<svg width="104" height="188" viewBox="0 0 104 188" fill="none" xmlns="http://www.w3.org/2000/svg">
<path d="M42.0756 27.6351C40.8766 -6.207 54.2321 -12.8362 61.0597 -11.9206H132V193H71.5508C68.0538 179.265 63.1579 142.896 71.5508 107.296C82.042 62.7958 43.5744 69.9378 42.0756 27.6351Z" fill="#FFFBF3"/>
<path opacity="0.5" d="M8.94776 38.3921C0.714059 5.54503 12.3924 -3.72489 19.2607 -4.25397L88.6397 -19.0555L131.396 181.355L72.2773 193.968C65.9915 181.265 53.615 146.718 54.3953 110.15C55.3707 64.44 19.2399 79.451 8.94776 38.3921Z" fill="white"/>
<path d="M75.4888 31.0773L78.3671 29.7446L78.9416 30.9852L76.0633 32.318L77.5733 35.5791L76.2547 36.1896L74.7447 32.9285L71.8664 34.2613L71.2919 33.0207L74.1702 31.6879L72.7751 28.6749L74.0937 28.0643L75.4888 31.0773Z" fill="#FFC248"/>
<path d="M84.3208 74.2411L86.8297 76.1817L85.9933 77.2632L83.4843 75.3226L81.2856 78.1653L80.1362 77.2762L82.3349 74.4336L79.8259 72.493L80.6624 71.4115L83.1713 73.3521L85.2027 70.7257L86.3522 71.6148L84.3208 74.2411Z" fill="#EB001B"/>
<g filter="url(#filter0_f_1_3030)">
<path d="M95.3208 119.241L97.8297 121.182L96.9933 122.263L94.4843 120.323L92.2856 123.165L91.1362 122.276L93.3349 119.434L90.8259 117.493L91.6624 116.412L94.1713 118.352L96.2027 115.726L97.3522 116.615L95.3208 119.241Z" fill="#FFC248"/>
</g>
<path d="M85.3208 161.241L87.8297 163.182L86.9933 164.263L84.4843 162.323L82.2856 165.165L81.1362 164.276L83.3349 161.434L80.8259 159.493L81.6624 158.412L84.1713 160.352L86.2027 157.726L87.3522 158.615L85.3208 161.241Z" fill="black"/>
<defs>
<filter id="filter0_f_1_3030" x="86.6272" y="111.785" width="15.2339" height="15.3207" filterUnits="userSpaceOnUse" color-interpolation-filters="sRGB">
<feFlood flood-opacity="0" result="BackgroundImageFix"/>
<feBlend mode="normal" in="SourceGraphic" in2="BackgroundImageFix" result="shape"/>
<feGaussianBlur stdDeviation="1" result="effect1_foregroundBlur_1_3030"/>
</filter>
</defs>
</svg>
