<svg width="16" height="16" viewBox="0 0 16 16" fill="none" xmlns="http://www.w3.org/2000/svg">
<g clip-path="url(#clip0_1_2642)">
<path d="M14.6667 8.99996V14C14.6667 14.1768 14.5964 14.3463 14.4714 14.4714C14.3464 14.5964 14.1768 14.6666 14 14.6666H13.3333C13.1565 14.6666 12.987 14.5964 12.8619 14.4714C12.7369 14.3463 12.6667 14.1768 12.6667 14V13.3333H3.33333V14C3.33333 14.1768 3.2631 14.3463 3.13807 14.4714C3.01305 14.5964 2.84348 14.6666 2.66667 14.6666H2C1.82319 14.6666 1.65362 14.5964 1.5286 14.4714C1.40357 14.3463 1.33333 14.1768 1.33333 14V8.99996L0.504667 8.79329C0.360502 8.75718 0.232539 8.67393 0.141104 8.55676C0.0496681 8.4396 3.90696e-06 8.29525 0 8.14663L0 7.66663C0 7.57822 0.035119 7.49344 0.0976311 7.43092C0.160143 7.36841 0.244928 7.33329 0.333333 7.33329H1.58333L3.00867 3.53196C3.10396 3.27775 3.27457 3.05869 3.4977 2.90406C3.72084 2.74943 3.98586 2.66659 4.25733 2.66663H11.7427C12.0141 2.66659 12.2792 2.74943 12.5023 2.90406C12.7254 3.05869 12.896 3.27775 12.9913 3.53196L14.4167 7.33329H15.6667C15.7551 7.33329 15.8399 7.36841 15.9024 7.43092C15.9649 7.49344 16 7.57822 16 7.66663V8.14663C16 8.29525 15.9503 8.4396 15.8589 8.55676C15.7675 8.67393 15.6395 8.75718 15.4953 8.79329L14.6667 8.99996ZM2.66667 9.99996V11.3333C2.66667 11.5101 2.7369 11.6797 2.86193 11.8047C2.98695 11.9297 3.15652 12 3.33333 12H5.49667C5.55423 11.9999 5.61079 11.9849 5.66083 11.9564C5.71088 11.928 5.7527 11.8871 5.78224 11.8377C5.81178 11.7883 5.82801 11.732 5.82937 11.6745C5.83073 11.617 5.81717 11.56 5.79 11.5093C5.25333 10.5026 4.212 9.99996 2.66667 9.99996ZM13.3333 9.99996C11.7887 9.99996 10.7473 10.5033 10.2093 11.5093C10.1821 11.5601 10.1686 11.6171 10.17 11.6747C10.1714 11.7323 10.1877 11.7885 10.2173 11.838C10.2469 11.8874 10.2888 11.9283 10.3389 11.9567C10.3891 11.9851 10.4457 12 10.5033 12H12.6667C12.8435 12 13.013 11.9297 13.1381 11.8047C13.2631 11.6797 13.3333 11.5101 13.3333 11.3333V9.99996ZM4 3.99996L2.95933 7.12263C2.92597 7.22279 2.91688 7.32945 2.9328 7.43383C2.94872 7.5382 2.9892 7.63729 3.05091 7.72296C3.11262 7.80863 3.19379 7.87841 3.28775 7.92657C3.38171 7.97473 3.48576 7.99988 3.59133 7.99996H12.4087C12.5142 7.99988 12.6183 7.97473 12.7123 7.92657C12.8062 7.87841 12.8874 7.80863 12.9491 7.72296C13.0108 7.63729 13.0513 7.5382 13.0672 7.43383C13.0831 7.32945 13.074 7.22279 13.0407 7.12263L12 3.99996H4Z" fill="white"/>
</g>
<defs>
<clipPath id="clip0_1_2642">
<rect width="16" height="16" fill="white"/>
</clipPath>
</defs>
</svg>
