<svg width="16" height="16" viewBox="0 0 16 16" fill="none" xmlns="http://www.w3.org/2000/svg">
<g clip-path="url(#clip0_1_2636)">
<path d="M11.3334 2.66663C12.3943 2.66663 13.4117 3.08805 14.1618 3.8382C14.912 4.58834 15.3334 5.60576 15.3334 6.66663V9.33329C15.3334 10.3942 14.912 11.4116 14.1618 12.1617C13.4117 12.9119 12.3943 13.3333 11.3334 13.3333H4.66675C3.60588 13.3333 2.58847 12.9119 1.83832 12.1617C1.08818 11.4116 0.666748 10.3942 0.666748 9.33329V6.66663C0.666748 5.60576 1.08818 4.58834 1.83832 3.8382C2.58847 3.08805 3.60588 2.66663 4.66675 2.66663H11.3334ZM6.66675 5.99996H5.33341V7.33329H4.00008V8.66663H5.33275L5.33341 9.99996H6.66675L6.66608 8.66663H8.00008V7.33329H6.66675V5.99996ZM12.0001 8.66663H10.6667V9.99996H12.0001V8.66663ZM10.6667 5.99996H9.33341V7.33329H10.6667V5.99996Z" fill="white"/>
</g>
<defs>
<clipPath id="clip0_1_2636">
<rect width="16" height="16" fill="white"/>
</clipPath>
</defs>
</svg>
