<svg width="48" height="48" viewBox="0 0 48 48" fill="none" xmlns="http://www.w3.org/2000/svg">
<g clip-path="url(#clip0_1_2494)">
<path d="M30.591 35.0335H18.4353V13.1876H30.591V35.0335Z" fill="#FF5F00"/>
<path d="M19.2149 24.1109C19.2149 19.6793 21.2898 15.7318 24.5209 13.1879C22.1581 11.3277 19.176 10.2174 15.9352 10.2174C8.26281 10.2174 2.04346 16.4376 2.04346 24.1109C2.04346 31.7842 8.26281 38.0044 15.9352 38.0044C19.176 38.0044 22.1581 36.8941 24.5209 35.0338C21.2898 32.4899 19.2149 28.5424 19.2149 24.1109Z" fill="#EB001B"/>
<path d="M46.9876 24.1109C46.9876 31.7842 40.7683 38.0044 33.0959 38.0044C29.855 38.0044 26.873 36.8941 24.5093 35.0338C27.7413 32.4899 29.8162 28.5424 29.8162 24.1109C29.8162 19.6793 27.7413 15.7318 24.5093 13.1879C26.873 11.3277 29.855 10.2174 33.0959 10.2174C40.7683 10.2174 46.9876 16.4376 46.9876 24.1109Z" fill="#F79E1B"/>
<path d="M44.5398 32.3468L44.0992 30.1437H39.1759L38.3926 32.3312L34.4466 32.339C36.3251 27.8214 38.2078 23.3055 40.0944 18.7913C40.4156 18.0255 40.9854 17.6358 41.8256 17.6398C42.4679 17.6456 43.5156 17.6456 44.9706 17.6417L48.0217 32.341L44.5398 32.3468ZM40.2844 27.1259H43.4569L42.2721 21.6034L40.2844 27.1259ZM14.8476 17.6378L18.8151 17.6417L12.6816 32.3488L8.6651 32.3449C7.65509 28.4602 6.65764 24.5722 5.67277 20.681C5.47694 19.9055 5.08919 19.3631 4.34306 19.1065C3.67919 18.8774 2.57273 18.5249 1.02173 18.0451V17.6437H7.36085C8.45752 17.6437 9.0979 18.1744 9.30352 19.2632C9.5111 20.354 10.032 23.1309 10.8702 27.594L14.8476 17.6378ZM24.2671 17.6417L21.1299 32.3449L17.3542 32.341L20.4876 17.6378L24.2671 17.6417ZM31.9242 17.3695C33.0542 17.3695 34.4779 17.722 35.2965 18.0451L34.6346 21.0943C33.8943 20.7966 32.6762 20.3951 31.652 20.4088C30.1637 20.4343 29.2433 21.059 29.2433 21.6583C29.2433 22.6335 30.8413 23.125 32.4863 24.1904C34.3643 25.4045 34.6111 26.4953 34.5876 27.6801C34.5621 30.1398 32.4863 32.5662 28.1074 32.5662C26.1099 32.5368 25.3893 32.3684 23.7599 31.7907L24.4493 28.6084C26.108 29.3036 26.811 29.5249 28.2289 29.5249C29.5272 29.5249 30.6415 29 30.6513 28.0855C30.6591 27.4353 30.2596 27.1122 28.8026 26.3093C27.3456 25.5044 25.3011 24.3901 25.3286 22.1537C25.3619 19.2906 28.0741 17.3695 31.9262 17.3695H31.9242Z" fill="white"/>
</g>
<defs>
<clipPath id="clip0_1_2494">
<rect width="48" height="48" fill="white"/>
</clipPath>
</defs>
</svg>
