<svg width="56" height="56" viewBox="0 0 56 56" fill="none" xmlns="http://www.w3.org/2000/svg">
<circle cx="28" cy="28" r="28" fill="#4807EA"/>
<g clip-path="url(#clip0_1_2720)">
<path d="M39.6667 29.75V38.5C39.6667 38.8094 39.5438 39.1061 39.325 39.3249C39.1062 39.5437 38.8094 39.6666 38.5 39.6666H37.3333C37.0239 39.6666 36.7272 39.5437 36.5084 39.3249C36.2896 39.1061 36.1667 38.8094 36.1667 38.5V37.3333H19.8333V38.5C19.8333 38.8094 19.7104 39.1061 19.4916 39.3249C19.2728 39.5437 18.9761 39.6666 18.6667 39.6666H17.5C17.1906 39.6666 16.8938 39.5437 16.675 39.3249C16.4562 39.1061 16.3333 38.8094 16.3333 38.5V29.75L14.8832 29.3883C14.6309 29.3251 14.4069 29.1794 14.2469 28.9744C14.0869 28.7693 14 28.5167 14 28.2566V27.4166C14 27.2619 14.0615 27.1135 14.1709 27.0041C14.2803 26.8947 14.4286 26.8333 14.5833 26.8333H16.7708L19.2652 20.181C19.4319 19.7361 19.7305 19.3527 20.121 19.0821C20.5115 18.8115 20.9752 18.6666 21.4503 18.6666H34.5497C35.0248 18.6666 35.4885 18.8115 35.879 19.0821C36.2695 19.3527 36.5681 19.7361 36.7348 20.181L39.2292 26.8333H41.4167C41.5714 26.8333 41.7197 26.8947 41.8291 27.0041C41.9385 27.1135 42 27.2619 42 27.4166V28.2566C42 28.5167 41.9131 28.7693 41.7531 28.9744C41.5931 29.1794 41.3691 29.3251 41.1168 29.3883L39.6667 29.75ZM18.6667 31.5V33.8333C18.6667 34.1427 18.7896 34.4395 19.0084 34.6583C19.2272 34.877 19.5239 35 19.8333 35H23.6192C23.7199 34.9998 23.8189 34.9736 23.9065 34.9238C23.994 34.874 24.0672 34.8024 24.1189 34.7159C24.1706 34.6295 24.199 34.5311 24.2014 34.4304C24.2038 34.3297 24.18 34.2301 24.1325 34.1413C23.1933 32.3796 21.371 31.5 18.6667 31.5ZM37.3333 31.5C34.6302 31.5 32.8078 32.3808 31.8663 34.1413C31.8187 34.2302 31.795 34.3299 31.7974 34.4307C31.7999 34.5315 31.8284 34.63 31.8802 34.7164C31.932 34.8029 32.0054 34.8745 32.0931 34.9242C32.1809 34.9739 32.28 35 32.3808 35H36.1667C36.4761 35 36.7728 34.877 36.9916 34.6583C37.2104 34.4395 37.3333 34.1427 37.3333 33.8333V31.5ZM21 21L19.1788 26.4646C19.1204 26.6399 19.1045 26.8266 19.1324 27.0092C19.1603 27.1919 19.2311 27.3653 19.3391 27.5152C19.4471 27.6651 19.5891 27.7872 19.7536 27.8715C19.918 27.9558 20.1001 27.9998 20.2848 28H35.7152C35.8999 27.9998 36.082 27.9558 36.2464 27.8715C36.4109 27.7872 36.5529 27.6651 36.6609 27.5152C36.7689 27.3653 36.8397 27.1919 36.8676 27.0092C36.8955 26.8266 36.8796 26.6399 36.8212 26.4646L35 21H21Z" fill="white"/>
</g>
<defs>
<clipPath id="clip0_1_2720">
<rect width="28" height="28" fill="white" transform="translate(14 14)"/>
</clipPath>
</defs>
</svg>
