<svg width="56" height="56" viewBox="0 0 56 56" fill="none" xmlns="http://www.w3.org/2000/svg">
<circle cx="28" cy="28" r="28" fill="#F2C94C"/>
<path fill-rule="evenodd" clip-rule="evenodd" d="M27.5921 29.0002C27.5921 30.0989 26.7017 30.9894 25.603 30.9894C24.5042 30.9894 23.6138 30.0989 23.6138 29.0002C23.6138 27.9014 24.5042 27.011 25.603 27.011H25.6062C26.7039 27.0121 27.5921 27.9025 27.5921 29.0002Z" stroke="white" stroke-width="1.5" stroke-linecap="round" stroke-linejoin="round"/>
<path d="M27.5952 29.0001H34.3812V30.9893" stroke="white" stroke-width="1.5" stroke-linecap="round" stroke-linejoin="round"/>
<path d="M31.3437 30.9893V29.0001" stroke="white" stroke-width="1.5" stroke-linecap="round" stroke-linejoin="round"/>
<path fill-rule="evenodd" clip-rule="evenodd" d="M19.0649 29.0001C19.0649 21.5493 21.5493 19.0649 29.0001 19.0649C36.451 19.0649 38.9353 21.5493 38.9353 29.0001C38.9353 36.451 36.451 38.9353 29.0001 38.9353C21.5493 38.9353 19.0649 36.451 19.0649 29.0001Z" stroke="white" stroke-width="1.5" stroke-linecap="round" stroke-linejoin="round"/>
</svg>
