<svg width="56" height="56" viewBox="0 0 56 56" fill="none" xmlns="http://www.w3.org/2000/svg">
<circle cx="28" cy="28" r="28" fill="#EF5DA8"/>
<path d="M21.5238 23.0001C25.4143 21.744 29.9724 21.4558 32 21.5001C34.0276 21.5444 34.8831 22.2664 35.5 23.5001C36.5 25.5001 36.289 30.4882 34.5 32.0872C32.712 33.6862 25.3301 33.8382 22.8701 32.0872C20.2711 30.2362 21.629 25.1921 21.544 21.7431C21.595 19.8131 19.5 19.5001 19.5 19.5001" stroke="white" stroke-width="1.5" stroke-linecap="round" stroke-linejoin="round"/>
<path d="M29 26.5001H31.773" stroke="white" stroke-width="1.5" stroke-linecap="round" stroke-linejoin="round"/>
<path fill-rule="evenodd" clip-rule="evenodd" d="M23.264 36.1276C23.564 36.1276 23.808 36.3716 23.808 36.6716C23.808 36.9726 23.564 37.2166 23.264 37.2166C22.963 37.2166 22.719 36.9726 22.719 36.6716C22.719 36.3716 22.963 36.1276 23.264 36.1276Z" fill="white" stroke="white" stroke-width="1.5" stroke-linecap="round" stroke-linejoin="round"/>
<path fill-rule="evenodd" clip-rule="evenodd" d="M33.5955 36.1276C33.8965 36.1276 34.1405 36.3716 34.1405 36.6716C34.1405 36.9726 33.8965 37.2166 33.5955 37.2166C33.2955 37.2166 33.0515 36.9726 33.0515 36.6716C33.0515 36.3716 33.2955 36.1276 33.5955 36.1276Z" fill="white" stroke="white" stroke-width="1.5" stroke-linecap="round" stroke-linejoin="round"/>
</svg>
